<svg width="24" height="24" viewBox="0 0 24 24" fill="none" xmlns="http://www.w3.org/2000/svg">
    <path d="M17.7963 2.66311C17.5205 3.7066 16.7055 4.52155 15.662 4.79721L14.2802 5.16224C13.9328 5.25402 13.9327 5.74714 14.2801 5.839L15.6627 6.20454C16.7058 6.48035 17.5205 7.29511 17.7962 8.3383L18.1614 9.72018C18.2533 10.0676 18.7464 10.0676 18.8382 9.72018L19.2034 8.3383C19.4791 7.29511 20.2938 6.48035 21.337 6.20454L22.7195 5.839C23.0669 5.74714 23.0669 5.25402 22.7194 5.16224L21.3376 4.79721C20.2941 4.52155 19.4791 3.7066 19.2034 2.66311L18.8382 1.28109C18.7464 0.933646 18.2532 0.933646 18.1614 1.28109L17.7963 2.66311Z"
          fill="url(#paint0_linear_4051_50967)"/>
    <path d="M9.41627 7.58714C8.85012 9.98138 6.98071 11.8508 4.58647 12.4169L2.4717 12.917C1.85592 13.0626 1.85574 13.9389 2.47145 14.0847L4.58912 14.5864C6.98195 15.1533 8.85002 17.022 9.41613 19.415L9.91636 21.5295C10.062 22.1452 10.9382 22.1454 11.0841 21.5297L11.5859 19.4123C12.1527 17.0207 14.0201 15.1534 16.4117 14.5866L18.5291 14.0847C19.1447 13.9388 19.1445 13.0627 18.5288 12.917L16.4143 12.4168C14.0213 11.8507 12.1526 9.98261 11.5858 7.58978L11.0841 5.47211C10.9382 4.8564 10.0619 4.85658 9.91634 5.47236L9.41627 7.58714Z"
          fill="url(#paint1_linear_4051_50967)"/>
    <defs>
        <linearGradient id="paint0_linear_4051_50967" x1="12.4949" y1="1.02051" x2="12.4949" y2="21.9914"
                        gradientUnits="userSpaceOnUse">
            <stop stop-color="#5EAFC5"/>
            <stop offset="1" stop-color="#007AC9"/>
        </linearGradient>
        <linearGradient id="paint1_linear_4051_50967" x1="12.4949" y1="1.02051" x2="12.4949" y2="21.9914"
                        gradientUnits="userSpaceOnUse">
            <stop stop-color="#5EAFC5"/>
            <stop offset="1" stop-color="#007AC9"/>
        </linearGradient>
    </defs>
</svg>
